<svg xmlns="http://www.w3.org/2000/svg" width="1450" height="780" viewBox="0 0 1450 780">
<rect width="100%" height="100%" fill="white"/>
<text x="725.0" y="54" font-family="Arial, Helvetica, sans-serif" font-size="32" fill="#111827" font-weight="700" text-anchor="middle"><tspan x="725.0" dy="0">Сравнение FinPulse с выбранными конкурентами</tspan></text>
<rect x="55" y="122" width="250" height="78" rx="10" fill="#eff6ff" stroke="#93c5fd" stroke-width="2"/>
<text x="180.0" y="153" font-family="Arial, Helvetica, sans-serif" font-size="20" fill="#0f172a" font-weight="700" text-anchor="middle"><tspan x="180.0" dy="0">Критерий</tspan></text>
<rect x="305" y="122" width="260" height="78" rx="10" fill="#eff6ff" stroke="#93c5fd" stroke-width="2"/>
<text x="435.0" y="153" font-family="Arial, Helvetica, sans-serif" font-size="20" fill="#0f172a" font-weight="700" text-anchor="middle"><tspan x="435.0" dy="0">Т-Инвестиции</tspan></text>
<rect x="565" y="122" width="260" height="78" rx="10" fill="#eff6ff" stroke="#93c5fd" stroke-width="2"/>
<text x="695.0" y="153" font-family="Arial, Helvetica, sans-serif" font-size="20" fill="#0f172a" font-weight="700" text-anchor="middle"><tspan x="695.0" dy="0">РБК</tspan><tspan x="695.0" dy="24.0">Инвестиции</tspan></text>
<rect x="825" y="122" width="260" height="78" rx="10" fill="#eff6ff" stroke="#93c5fd" stroke-width="2"/>
<text x="955.0" y="153" font-family="Arial, Helvetica, sans-serif" font-size="20" fill="#0f172a" font-weight="700" text-anchor="middle"><tspan x="955.0" dy="0">Investing.com</tspan></text>
<rect x="1085" y="122" width="300" height="78" rx="10" fill="#ecfdf5" stroke="#22c55e" stroke-width="2"/>
<text x="1235.0" y="153" font-family="Arial, Helvetica, sans-serif" font-size="20" fill="#0f172a" font-weight="700" text-anchor="middle"><tspan x="1235.0" dy="0">FinPulse</tspan></text>
<rect x="55" y="200" width="250" height="100" rx="8" fill="#f1f5f9" stroke="#cbd5e1" stroke-width="1.8"/>
<text x="180.0" y="239" font-family="Arial, Helvetica, sans-serif" font-size="18.5" fill="#111827" font-weight="700" text-anchor="middle"><tspan x="180.0" dy="0">Тип сервиса</tspan></text>
<rect x="305" y="200" width="260" height="100" rx="8" fill="#ffffff" stroke="#cbd5e1" stroke-width="1.8"/>
<text x="435.0" y="238" font-family="Arial, Helvetica, sans-serif" font-size="17.5" fill="#111827" font-weight="500" text-anchor="middle"><tspan x="435.0" dy="0">Брокерское</tspan><tspan x="435.0" dy="21.0">приложение</tspan></text>
<rect x="565" y="200" width="260" height="100" rx="8" fill="#ffffff" stroke="#cbd5e1" stroke-width="1.8"/>
<text x="695.0" y="238" font-family="Arial, Helvetica, sans-serif" font-size="17.5" fill="#111827" font-weight="500" text-anchor="middle"><tspan x="695.0" dy="0">Финансовое</tspan><tspan x="695.0" dy="21.0">медиа</tspan></text>
<rect x="825" y="200" width="260" height="100" rx="8" fill="#ffffff" stroke="#cbd5e1" stroke-width="1.8"/>
<text x="955.0" y="238" font-family="Arial, Helvetica, sans-serif" font-size="17.5" fill="#111827" font-weight="500" text-anchor="middle"><tspan x="955.0" dy="0">Глобальная</tspan><tspan x="955.0" dy="21.0">инфоплатформа</tspan></text>
<rect x="1085" y="200" width="300" height="100" rx="8" fill="#f0fdf4" stroke="#86efac" stroke-width="1.8"/>
<text x="1235.0" y="238" font-family="Arial, Helvetica, sans-serif" font-size="17.5" fill="#111827" font-weight="600" text-anchor="middle"><tspan x="1235.0" dy="0">AI-система</tspan><tspan x="1235.0" dy="21.0">анализа новостей</tspan></text>
<rect x="55" y="300" width="250" height="100" rx="8" fill="#f1f5f9" stroke="#cbd5e1" stroke-width="1.8"/>
<text x="180.0" y="339" font-family="Arial, Helvetica, sans-serif" font-size="18.5" fill="#111827" font-weight="700" text-anchor="middle"><tspan x="180.0" dy="0">Основной</tspan><tspan x="180.0" dy="22.2">фокус</tspan></text>
<rect x="305" y="300" width="260" height="100" rx="8" fill="#f8fafc" stroke="#cbd5e1" stroke-width="1.8"/>
<text x="435.0" y="338" font-family="Arial, Helvetica, sans-serif" font-size="17.5" fill="#111827" font-weight="500" text-anchor="middle"><tspan x="435.0" dy="0">Сделки</tspan><tspan x="435.0" dy="21.0">и портфель</tspan></text>
<rect x="565" y="300" width="260" height="100" rx="8" fill="#f8fafc" stroke="#cbd5e1" stroke-width="1.8"/>
<text x="695.0" y="338" font-family="Arial, Helvetica, sans-serif" font-size="17.5" fill="#111827" font-weight="500" text-anchor="middle"><tspan x="695.0" dy="0">Новости</tspan><tspan x="695.0" dy="21.0">и аналитика</tspan></text>
<rect x="825" y="300" width="260" height="100" rx="8" fill="#f8fafc" stroke="#cbd5e1" stroke-width="1.8"/>
<text x="955.0" y="338" font-family="Arial, Helvetica, sans-serif" font-size="17.5" fill="#111827" font-weight="500" text-anchor="middle"><tspan x="955.0" dy="0">Глобальные</tspan><tspan x="955.0" dy="21.0">рынки</tspan></text>
<rect x="1085" y="300" width="300" height="100" rx="8" fill="#f0fdf4" stroke="#86efac" stroke-width="1.8"/>
<text x="1235.0" y="338" font-family="Arial, Helvetica, sans-serif" font-size="17.5" fill="#111827" font-weight="600" text-anchor="middle"><tspan x="1235.0" dy="0">Интерпретация</tspan><tspan x="1235.0" dy="21.0">новостей РФ</tspan></text>
<rect x="55" y="400" width="250" height="100" rx="8" fill="#f1f5f9" stroke="#cbd5e1" stroke-width="1.8"/>
<text x="180.0" y="439" font-family="Arial, Helvetica, sans-serif" font-size="18.5" fill="#111827" font-weight="700" text-anchor="middle"><tspan x="180.0" dy="0">AI-карточка</tspan><tspan x="180.0" dy="22.2">новости</tspan></text>
<rect x="305" y="400" width="260" height="100" rx="8" fill="#ffffff" stroke="#cbd5e1" stroke-width="1.8"/>
<text x="435.0" y="438" font-family="Arial, Helvetica, sans-serif" font-size="17.5" fill="#111827" font-weight="500" text-anchor="middle"><tspan x="435.0" dy="0">Нет как</tspan><tspan x="435.0" dy="21.0">основной сценарий</tspan></text>
<rect x="565" y="400" width="260" height="100" rx="8" fill="#ffffff" stroke="#cbd5e1" stroke-width="1.8"/>
<text x="695.0" y="438" font-family="Arial, Helvetica, sans-serif" font-size="17.5" fill="#111827" font-weight="500" text-anchor="middle"><tspan x="695.0" dy="0">Редакционный</tspan><tspan x="695.0" dy="21.0">формат</tspan></text>
<rect x="825" y="400" width="260" height="100" rx="8" fill="#ffffff" stroke="#cbd5e1" stroke-width="1.8"/>
<text x="955.0" y="438" font-family="Arial, Helvetica, sans-serif" font-size="17.5" fill="#111827" font-weight="500" text-anchor="middle"><tspan x="955.0" dy="0">Новостной</tspan><tspan x="955.0" dy="21.0">формат</tspan></text>
<rect x="1085" y="400" width="300" height="100" rx="8" fill="#f0fdf4" stroke="#86efac" stroke-width="1.8"/>
<text x="1235.0" y="438" font-family="Arial, Helvetica, sans-serif" font-size="17.5" fill="#111827" font-weight="600" text-anchor="middle"><tspan x="1235.0" dy="0">Summary, facts,</tspan><tspan x="1235.0" dy="21.0">risks, indicator</tspan></text>
<rect x="55" y="500" width="250" height="100" rx="8" fill="#f1f5f9" stroke="#cbd5e1" stroke-width="1.8"/>
<text x="180.0" y="539" font-family="Arial, Helvetica, sans-serif" font-size="18.5" fill="#111827" font-weight="700" text-anchor="middle"><tspan x="180.0" dy="0">Чат-ассистент</tspan></text>
<rect x="305" y="500" width="260" height="100" rx="8" fill="#f8fafc" stroke="#cbd5e1" stroke-width="1.8"/>
<text x="435.0" y="538" font-family="Arial, Helvetica, sans-serif" font-size="17.5" fill="#111827" font-weight="500" text-anchor="middle"><tspan x="435.0" dy="0">Не основной</tspan><tspan x="435.0" dy="21.0">сценарий</tspan></text>
<rect x="565" y="500" width="260" height="100" rx="8" fill="#f8fafc" stroke="#cbd5e1" stroke-width="1.8"/>
<text x="695.0" y="538" font-family="Arial, Helvetica, sans-serif" font-size="17.5" fill="#111827" font-weight="500" text-anchor="middle"><tspan x="695.0" dy="0">Нет</tspan></text>
<rect x="825" y="500" width="260" height="100" rx="8" fill="#f8fafc" stroke="#cbd5e1" stroke-width="1.8"/>
<text x="955.0" y="538" font-family="Arial, Helvetica, sans-serif" font-size="17.5" fill="#111827" font-weight="500" text-anchor="middle"><tspan x="955.0" dy="0">Нет</tspan></text>
<rect x="1085" y="500" width="300" height="100" rx="8" fill="#f0fdf4" stroke="#86efac" stroke-width="1.8"/>
<text x="1235.0" y="538" font-family="Arial, Helvetica, sans-serif" font-size="17.5" fill="#111827" font-weight="600" text-anchor="middle"><tspan x="1235.0" dy="0">Да, с учетом</tspan><tspan x="1235.0" dy="21.0">профиля</tspan></text>
<rect x="55" y="600" width="250" height="100" rx="8" fill="#f1f5f9" stroke="#cbd5e1" stroke-width="1.8"/>
<text x="180.0" y="639" font-family="Arial, Helvetica, sans-serif" font-size="18.5" fill="#111827" font-weight="700" text-anchor="middle"><tspan x="180.0" dy="0">Устойчивость</tspan><tspan x="180.0" dy="22.2">AI-обработки</tspan></text>
<rect x="305" y="600" width="260" height="100" rx="8" fill="#ffffff" stroke="#cbd5e1" stroke-width="1.8"/>
<text x="435.0" y="638" font-family="Arial, Helvetica, sans-serif" font-size="17.5" fill="#111827" font-weight="500" text-anchor="middle"><tspan x="435.0" dy="0">Не применимо</tspan></text>
<rect x="565" y="600" width="260" height="100" rx="8" fill="#ffffff" stroke="#cbd5e1" stroke-width="1.8"/>
<text x="695.0" y="638" font-family="Arial, Helvetica, sans-serif" font-size="17.5" fill="#111827" font-weight="500" text-anchor="middle"><tspan x="695.0" dy="0">Не применимо</tspan></text>
<rect x="825" y="600" width="260" height="100" rx="8" fill="#ffffff" stroke="#cbd5e1" stroke-width="1.8"/>
<text x="955.0" y="638" font-family="Arial, Helvetica, sans-serif" font-size="17.5" fill="#111827" font-weight="500" text-anchor="middle"><tspan x="955.0" dy="0">Не применимо</tspan></text>
<rect x="1085" y="600" width="300" height="100" rx="8" fill="#f0fdf4" stroke="#86efac" stroke-width="1.8"/>
<text x="1235.0" y="638" font-family="Arial, Helvetica, sans-serif" font-size="17.5" fill="#111827" font-weight="600" text-anchor="middle"><tspan x="1235.0" dy="0">Fallback</tspan><tspan x="1235.0" dy="21.0">rules-анализ</tspan></text>
<rect x="225" y="710" width="1000" height="46" rx="10" fill="#f8fafc" stroke="#cbd5e1" stroke-width="1.8"/>
<text x="725" y="740" font-family="Arial, Helvetica, sans-serif" font-size="19" fill="#334155" font-weight="700" text-anchor="middle">Вывод: FinPulse закрывает нишу быстрой AI-интерпретации новостей российского рынка.</text>
</svg>