<svg xmlns="http://www.w3.org/2000/svg" width="1300" height="760" viewBox="0 0 1300 760">
<rect width="100%" height="100%" fill="white"/>
<rect x="145" y="140" width="1100" height="505" fill="#fbfcfd"/>
<text x="650.0" y="48" font-family="Arial, Helvetica, sans-serif" font-size="29" fill="#111827" font-weight="700" text-anchor="middle"><tspan x="650.0" dy="0">Динамика роста количества частных инвесторов</tspan><tspan x="650.0" dy="36.25">с брокерскими счетами на Московской бирже</tspan></text>
<line x1="145" y1="645.0" x2="1245" y2="645.0" stroke="#d9e2ec" stroke-width="1"/>
<text x="123" y="650.0" font-family="Arial, Helvetica, sans-serif" font-size="16" fill="#4b5563" font-weight="400" text-anchor="end">0</text>
<line x1="145" y1="588.9" x2="1245" y2="588.9" stroke="#d9e2ec" stroke-width="1"/>
<text x="123" y="593.8888888888889" font-family="Arial, Helvetica, sans-serif" font-size="16" fill="#4b5563" font-weight="400" text-anchor="end">5</text>
<line x1="145" y1="532.8" x2="1245" y2="532.8" stroke="#d9e2ec" stroke-width="1"/>
<text x="123" y="537.7777777777778" font-family="Arial, Helvetica, sans-serif" font-size="16" fill="#4b5563" font-weight="400" text-anchor="end">10</text>
<line x1="145" y1="476.7" x2="1245" y2="476.7" stroke="#d9e2ec" stroke-width="1"/>
<text x="123" y="481.6666666666667" font-family="Arial, Helvetica, sans-serif" font-size="16" fill="#4b5563" font-weight="400" text-anchor="end">15</text>
<line x1="145" y1="420.6" x2="1245" y2="420.6" stroke="#d9e2ec" stroke-width="1"/>
<text x="123" y="425.55555555555554" font-family="Arial, Helvetica, sans-serif" font-size="16" fill="#4b5563" font-weight="400" text-anchor="end">20</text>
<line x1="145" y1="364.4" x2="1245" y2="364.4" stroke="#d9e2ec" stroke-width="1"/>
<text x="123" y="369.44444444444446" font-family="Arial, Helvetica, sans-serif" font-size="16" fill="#4b5563" font-weight="400" text-anchor="end">25</text>
<line x1="145" y1="308.3" x2="1245" y2="308.3" stroke="#d9e2ec" stroke-width="1"/>
<text x="123" y="313.33333333333337" font-family="Arial, Helvetica, sans-serif" font-size="16" fill="#4b5563" font-weight="400" text-anchor="end">30</text>
<line x1="145" y1="252.2" x2="1245" y2="252.2" stroke="#d9e2ec" stroke-width="1"/>
<text x="123" y="257.22222222222223" font-family="Arial, Helvetica, sans-serif" font-size="16" fill="#4b5563" font-weight="400" text-anchor="end">35</text>
<line x1="145" y1="196.1" x2="1245" y2="196.1" stroke="#d9e2ec" stroke-width="1"/>
<text x="123" y="201.11111111111114" font-family="Arial, Helvetica, sans-serif" font-size="16" fill="#4b5563" font-weight="400" text-anchor="end">40</text>
<line x1="145" y1="140.0" x2="1245" y2="140.0" stroke="#d9e2ec" stroke-width="1"/>
<text x="123" y="145.0" font-family="Arial, Helvetica, sans-serif" font-size="16" fill="#4b5563" font-weight="400" text-anchor="end">45</text>
<polygon points="145,645 145.0,546.2 328.3,454.2 511.7,388.0 695.0,307.2 878.3,251.1 1061.7,195.0 1245.0,183.8 1245,645" fill="#1f6feb" opacity="0.10"/>
<polyline points="145.0,546.2 328.3,454.2 511.7,388.0 695.0,307.2 878.3,251.1 1061.7,195.0 1245.0,183.8" fill="none" stroke="#1f6feb" stroke-width="5" stroke-linejoin="round" stroke-linecap="round"/>
<circle cx="145.0" cy="546.2" r="8" fill="white" stroke="#1f6feb" stroke-width="4"/>
<text x="145.0" y="528.2444444444444" font-family="Arial, Helvetica, sans-serif" font-size="17" fill="#111827" font-weight="700" text-anchor="middle">8.8</text>
<circle cx="328.3" cy="454.2" r="8" fill="white" stroke="#1f6feb" stroke-width="4"/>
<text x="328.33333333333337" y="436.22222222222223" font-family="Arial, Helvetica, sans-serif" font-size="17" fill="#111827" font-weight="700" text-anchor="middle">17.0</text>
<circle cx="511.7" cy="388.0" r="8" fill="white" stroke="#1f6feb" stroke-width="4"/>
<text x="511.6666666666667" y="370.0111111111111" font-family="Arial, Helvetica, sans-serif" font-size="17" fill="#111827" font-weight="700" text-anchor="middle">22.9</text>
<circle cx="695.0" cy="307.2" r="8" fill="white" stroke="#1f6feb" stroke-width="4"/>
<text x="695.0" y="289.2111111111111" font-family="Arial, Helvetica, sans-serif" font-size="17" fill="#111827" font-weight="700" text-anchor="middle">30.1</text>
<circle cx="878.3" cy="251.1" r="8" fill="white" stroke="#1f6feb" stroke-width="4"/>
<text x="878.3333333333334" y="233.09999999999997" font-family="Arial, Helvetica, sans-serif" font-size="17" fill="#111827" font-weight="700" text-anchor="middle">35.1</text>
<circle cx="1061.7" cy="195.0" r="8" fill="white" stroke="#1f6feb" stroke-width="4"/>
<text x="1061.6666666666665" y="176.98888888888882" font-family="Arial, Helvetica, sans-serif" font-size="17" fill="#111827" font-weight="700" text-anchor="middle">40.1</text>
<circle cx="1245.0" cy="183.8" r="8" fill="white" stroke="#1f6feb" stroke-width="4"/>
<text x="1245.0" y="165.76666666666665" font-family="Arial, Helvetica, sans-serif" font-size="17" fill="#111827" font-weight="700" text-anchor="middle">41.1</text>
<text x="145.0" y="683" font-family="Arial, Helvetica, sans-serif" font-size="17" fill="#374151" font-weight="400" text-anchor="middle">2020</text>
<text x="328.33333333333337" y="683" font-family="Arial, Helvetica, sans-serif" font-size="17" fill="#374151" font-weight="400" text-anchor="middle">2021</text>
<text x="511.6666666666667" y="683" font-family="Arial, Helvetica, sans-serif" font-size="17" fill="#374151" font-weight="400" text-anchor="middle">2022</text>
<text x="695.0" y="683" font-family="Arial, Helvetica, sans-serif" font-size="17" fill="#374151" font-weight="400" text-anchor="middle">2023</text>
<text x="878.3333333333334" y="683" font-family="Arial, Helvetica, sans-serif" font-size="17" fill="#374151" font-weight="400" text-anchor="middle">2024</text>
<text x="1061.6666666666665" y="683" font-family="Arial, Helvetica, sans-serif" font-size="17" fill="#374151" font-weight="400" text-anchor="middle">2025</text>
<text x="1245.0" y="683" font-family="Arial, Helvetica, sans-serif" font-size="17" fill="#374151" font-weight="400" text-anchor="middle">04.2026</text>
<text x="145" y="118" font-family="Arial, Helvetica, sans-serif" font-size="17" fill="#374151" font-weight="500" text-anchor="start">млн человек</text>
<line x1="145" y1="140" x2="145" y2="645" stroke="#9aa6b2"/>
<line x1="145" y1="645" x2="1245" y2="645" stroke="#9aa6b2"/>
<text x="24" y="730" font-family="Arial, Helvetica, sans-serif" font-size="14" fill="#4b5563" font-weight="400" text-anchor="start">Источник: Московская биржа, пресс-релизы и годовые данные 2020-2026 гг.</text>
</svg>